<svg version="1.1" id="Capa_1" xmlns="http://www.w3.org/2000/svg" x="0" y="0" viewBox="0 0 481.1 481.1" xml:space="preserve"><style>.st0{fill:#fff}</style><path class="st0" d="M470.5 159.6l-36-35.7c-10.7 10.7-23.6 16-38.8 16-15.2 0-28.2-5.3-38.8-16-10.7-10.7-16-23.6-16-38.8 0-15.2 5.3-28.2 16-38.8l-35.7-35.7c-7-7-15.7-10.6-25.8-10.6-10.2 0-18.8 3.5-25.8 10.6l-259 258.7C3.6 276.3 0 285 0 295.1c0 10.2 3.5 18.8 10.6 25.8l35.7 36c10.7-10.7 23.6-16 38.8-16 15.2 0 28.2 5.3 38.8 16 10.7 10.7 16 23.6 16 38.8s-5.3 28.2-16 38.8l36 36c7 7 15.7 10.6 25.8 10.6 10.2 0 18.8-3.5 25.8-10.6l259-259.2c7-7 10.6-15.7 10.6-25.8 0-10.2-3.5-18.9-10.6-25.9zm-77.4 57.1L216.7 393.1c-3.4 3.4-7.7 5.1-12.8 5.1-5.1 0-9.4-1.7-12.8-5.1L87.7 289.8c-3.6-3.6-5.4-7.9-5.4-12.8s1.8-9.2 5.4-12.9L264.1 87.7c3.4-3.4 7.7-5.1 12.9-5.1 5.1 0 9.4 1.7 12.8 5.1L393.1 191c3.6 3.6 5.4 7.9 5.4 12.9.1 4.9-1.7 9.2-5.4 12.8z"/><path class="st0" d="M277 113.6l90.2 90.2-163.3 163.4-90.2-90.2L277 113.6z"/></svg>