<?xml version="1.0" encoding="utf-8"?>
<!-- Generator: Adobe Illustrator 21.0.2, SVG Export Plug-In . SVG Version: 6.00 Build 0)  -->
<svg version="1.1" id="Capa_1" xmlns="http://www.w3.org/2000/svg" xmlns:xlink="http://www.w3.org/1999/xlink" x="0px" y="0px"
	 viewBox="0 0 481.1 481.1" style="enable-background:new 0 0 481.1 481.1;" xml:space="preserve">
<style type="text/css">
	.st0{fill:#FFFFFF;}
</style>
<g>
	<g>
		<path class="st0" d="M470.5,159.6l-36-35.7c-10.7,10.7-23.6,16-38.8,16c-15.2,0-28.2-5.3-38.8-16c-10.7-10.7-16-23.6-16-38.8
			c0-15.2,5.3-28.2,16-38.8l-35.7-35.7c-7-7-15.7-10.6-25.8-10.6c-10.2,0-18.8,3.5-25.8,10.6l-259,258.7c-7,7-10.6,15.7-10.6,25.8
			c0,10.2,3.5,18.8,10.6,25.8l35.7,36c10.7-10.7,23.6-16,38.8-16c15.2,0,28.2,5.3,38.8,16c10.7,10.7,16,23.6,16,38.8
			s-5.3,28.2-16,38.8l36,36c7,7,15.7,10.6,25.8,10.6c10.2,0,18.8-3.5,25.8-10.6l259-259.2c7-7,10.6-15.7,10.6-25.8
			C481.1,175.3,477.6,166.6,470.5,159.6z M393.1,216.7L216.7,393.1c-3.4,3.4-7.7,5.1-12.8,5.1c-5.1,0-9.4-1.7-12.8-5.1L87.7,289.8
			c-3.6-3.6-5.4-7.9-5.4-12.8c0-4.9,1.8-9.2,5.4-12.9L264.1,87.7c3.4-3.4,7.7-5.1,12.9-5.1c5.1,0,9.4,1.7,12.8,5.1L393.1,191
			c3.6,3.6,5.4,7.9,5.4,12.9C398.6,208.8,396.8,213.1,393.1,216.7z"/>
		<path class="st0" d="M277,113.6l90.2,90.2L203.9,367.2l-90.2-90.2L277,113.6z"/>
	</g>
</g>
</svg>
