<?xml version="1.0" standalone="no"?>
<!DOCTYPE svg PUBLIC "-//W3C//DTD SVG 20010904//EN"
 "http://www.w3.org/TR/2001/REC-SVG-20010904/DTD/svg10.dtd">
<svg version="1.0" xmlns="http://www.w3.org/2000/svg"
 width="512.000000pt" height="512.000000pt" viewBox="0 0 512.000000 512.000000"
 preserveAspectRatio="xMidYMid meet">

<g transform="translate(0.000000,512.000000) scale(0.100000,-0.100000)"
fill="#000000" stroke="none">
<path d="M0 4305 l0 -815 175 0 c110 0 175 4 175 10 0 6 9 10 20 10 18 0 20 7
20 75 l0 75 35 0 35 0 0 75 0 75 35 0 c33 0 35 2 35 35 0 24 5 35 15 35 12 0
15 18 15 105 l0 105 70 0 70 0 0 105 c0 87 3 105 15 105 13 0 15 50 15 390 l0
390 80 0 c44 0 80 4 80 9 0 4 37 13 83 18 62 8 -43 10 -445 12 l-528 1 0 -815z"/>
<path d="M4848 5113 c18 -4 22 -11 22 -44 0 -32 3 -39 20 -39 16 0 20 -7 20
-35 0 -24 5 -35 15 -35 11 0 15 -11 15 -40 0 -28 4 -40 14 -40 16 0 26 -21 26
-56 0 -13 4 -24 9 -24 5 0 12 -40 15 -90 l8 -90 54 0 54 0 0 250 0 250 -147
-1 c-82 -1 -138 -4 -125 -6z"/>
<path d="M4870 1580 l0 -90 -75 0 -75 0 0 -130 0 -130 -85 0 -85 0 0 -91 c0
-111 -6 -119 -89 -119 l-60 0 -3 -62 c-3 -63 -3 -63 -35 -66 l-33 -3 0 -69 0
-69 -35 -7 -35 -6 0 -69 0 -69 -40 0 c-39 0 -40 -1 -40 -34 0 -26 -5 -36 -20
-41 -14 -4 -20 -15 -20 -36 0 -29 -1 -29 -57 -29 -92 0 -103 -6 -103 -51 l0
-39 -265 0 -265 0 0 -30 0 -30 -75 0 -75 0 0 -35 c0 -34 -1 -35 -40 -35 -38 0
-40 -2 -40 -30 0 -27 -3 -30 -30 -30 -27 0 -30 -3 -30 -30 0 -27 -3 -30 -30
-30 -29 0 -30 -1 -30 -50 l0 -50 -42 -1 c-24 -1 -54 -5 -68 -9 -14 -4 460 -8
1053 -9 l1077 -1 0 835 0 835 -125 0 -125 0 0 -90z"/>
</g>
</svg>
